<svg version="1.2" baseProfile="tiny-ps" xmlns="http://www.w3.org/2000/svg" viewBox="0 0 112 112" width="112" height="112">
	<title>Ebene 1</title>
	<style>
		tspan { white-space:pre }
		.s0 { fill: #ffffff } 
		.s1 { fill: #efaa00 } 
	</style>
	<g id="Ebene 1">
		<g id="&lt;Group&gt;">
			<g id="&lt;Group&gt;">
				<g id="&lt;Group&gt;">
					<path id="&lt;Path&gt;" class="s0" d="m111.13 55.55c0 30.68-24.87 55.56-55.56 55.56c-30.68 0-55.56-24.87-55.56-55.56c0-30.68 24.87-55.56 55.56-55.56c30.68 0 55.56 24.87 55.56 55.56z" />
					<path id="&lt;Path&gt;" class="s1" d="m100.82 68.59l-23.81 1.04l4.26 16.22l-15.69-6.44l-5.79 23.03l-9.19-21.83l-19.76 18.07l6.93-25.89l-25.07 2.16l19.28-16.05l-18.61-12.17l22.1-2.47l-13.67-26.88l25.1 17.09l6.84-25.92l8.14 24.71l15.83-10.47l-3 18.29l28.15-1.62l-22.36 15.51l20.32 13.6z" />
					<path id="&lt;Path&gt;" class="s0" d="m33.79 51.27l12.22-0.64l-2.26-8.31l8.08 3.24l2.87-11.85l4.81 11.17l10.07-9.36l-3.45 13.32l12.87-1.22l-9.83 8.33l9.61 6.17l-11.34 1.37l7.14 13.74l-12.97-8.67l-3.4 13.34l-4.29-12.66l-8.08 5.44l1.46-9.4l-14.45 0.96l11.41-8.06l-10.5-6.9z" />
				</g>
			</g>
		</g>
	</g>
</svg>