<svg version="1.2" baseProfile="tiny-ps" xmlns="http://www.w3.org/2000/svg" viewBox="0 0 112 112" width="112" height="112">
	<title>Ebene 1</title>
	<style>
		tspan { white-space:pre }
		.s0 { fill: #ffffff } 
		.s1 { fill: #efaa00 } 
	</style>
	<g id="Ebene 1">
		<g id="&lt;Group&gt;">
			<g id="&lt;Group&gt;">
				<g id="&lt;Group&gt;">
					<path id="&lt;Path&gt;" class="s0" d="m111.75 55.55c0 30.68-24.87 55.56-55.56 55.56c-30.68 0-55.56-24.87-55.56-55.56c0-30.68 24.87-55.56 55.56-55.56c30.68 0 55.56 24.87 55.56 55.56z" />
					<g id="&lt;Group&gt;">
						<path id="&lt;Path&gt;" class="s1" d="m90.14 63.89c-4.74 18.75-23.78 30.11-42.53 25.37c-3.39-0.86-6.54-2.19-9.4-3.9l-16.19 5.46l6.04-14.66c-6.03-8.15-8.5-18.84-5.82-29.44c4.74-18.75 23.78-30.11 42.53-25.37c18.75 4.74 30.11 23.78 25.37 42.53z" />
						<g id="&lt;Group&gt;">
							<path id="&lt;Compound Path&gt;" class="s0" d="m33.61 55.55c0-1.63 0.55-2.96 1.65-3.98c1.1-1.02 2.48-1.53 4.14-1.53c1.68 0 3.07 0.51 4.17 1.53c1.1 1.02 1.65 2.34 1.65 3.98c0 1.61-0.54 2.92-1.63 3.92c-1.09 1.01-2.48 1.51-4.19 1.51c-1.68 0-3.07-0.5-4.15-1.51c-1.09-1.01-1.63-2.31-1.63-3.92zm16.79 0c0-1.63 0.55-2.96 1.65-3.98c1.1-1.02 2.48-1.53 4.14-1.53c1.68 0 3.07 0.51 4.17 1.53c1.1 1.02 1.65 2.34 1.65 3.98c0 1.61-0.54 2.92-1.63 3.92c-1.09 1.01-2.49 1.51-4.19 1.51c-1.68 0-3.07-0.5-4.15-1.51c-1.09-1.01-1.63-2.31-1.63-3.92zm16.47 0c0-1.63 0.55-2.96 1.65-3.98c1.1-1.02 2.48-1.53 4.14-1.53c1.68 0 3.07 0.51 4.17 1.53c1.1 1.02 1.65 2.34 1.65 3.98c0 1.61-0.54 2.92-1.63 3.92c-1.09 1.01-2.48 1.51-4.19 1.51c-1.68 0-3.07-0.5-4.15-1.51c-1.09-1.01-1.63-2.31-1.63-3.92z" />
						</g>
					</g>
				</g>
			</g>
		</g>
	</g>
</svg>