<svg version="1.2" baseProfile="tiny-ps" xmlns="http://www.w3.org/2000/svg" viewBox="0 0 112 112" width="112" height="112">
	<title>Ebene 1</title>
	<style>
		tspan { white-space:pre }
		.s0 { fill: #ffffff } 
		.s1 { fill: #efaa00 } 
	</style>
	<g id="Ebene 1">
		<g id="&lt;Group&gt;">
			<g id="&lt;Group&gt;">
				<g id="&lt;Group&gt;">
					<path id="&lt;Path&gt;" class="s0" d="m111.5 55.55c0 30.68-24.87 55.56-55.56 55.56c-30.68 0-55.56-24.87-55.56-55.56c0-30.68 24.87-55.56 55.56-55.56c30.68 0 55.56 24.87 55.56 55.56z" />
				</g>
				<g id="&lt;Group&gt;">
					<path id="&lt;Compound Path&gt;" fill-rule="evenodd" class="s1" d="m91.49 33.73c-0.15 3.45-0.23 6.79-0.47 10.13c-0.64 9.1-2.11 18.02-5.51 26.56c-5.04 12.65-14.01 21.3-26.66 26.19c-0.26 0.1-0.57 0.15-0.89 0.15c-0.44 0-0.9-0.09-1.28-0.23c-14.95-5.81-24.11-16.81-28.49-32.03c-2.79-9.7-3.71-19.64-3.79-29.69c0-0.41 0.54-1.15 0.9-1.2c12.15-1.58 22.51-7.1 32.08-14.4c0.12-0.09 0.25-0.18 0.5-0.35c9.98 7.68 20.77 13.37 33.6 14.88zm-63.57 3c0.2 10.38 1.36 18.94 3.62 26.79c4.25 14.74 12.86 24.47 26.34 29.73c11.79-4.64 19.77-12.53 24.39-24.12c2.88-7.21 4.55-15.32 5.27-25.51c0.16-2.23 0.24-4.44 0.33-6.78c0-0.04 0-0.07 0-0.11c-10.22-1.75-19.88-6.12-30.01-13.54c-10.18 7.49-19.8 11.84-29.96 13.54z" />
				</g>
				<path id="&lt;Path&gt;" class="s1" d="m57.95 37.52l5.16 10.46l11.55 1.68l-8.36 8.14l1.97 11.5l-10.33-5.43l-10.33 5.43l1.97-11.5l-8.36-8.14l11.55-1.68l5.16-10.46z" />
			</g>
		</g>
	</g>
</svg>