<svg version="1.2" baseProfile="tiny-ps" xmlns="http://www.w3.org/2000/svg" viewBox="0 0 112 112" width="112" height="112">
	<title>Ebene 1</title>
	<style>
		tspan { white-space:pre }
		.s0 { fill: #ffffff } 
		.s1 { fill: #efaa00 } 
	</style>
	<g id="Ebene 1">
		<g id="&lt;Group&gt;">
			<g id="&lt;Group&gt;">
				<g id="&lt;Group&gt;">
					<path id="&lt;Path&gt;" class="s0" d="m111.35 55.55c0 30.68-24.87 55.56-55.56 55.56c-30.68 0-55.56-24.87-55.56-55.56c0-30.68 24.87-55.56 55.56-55.56c30.68 0 55.56 24.87 55.56 55.56z" />
					<path id="&lt;Path&gt;" class="s1" d="m75.84 55.96l34.85-8.99c0.16 1.04 0.29 2.09 0.39 3.15l-33.44 8.62l20.91 32.26c-0.7 0.84-1.43 1.65-2.17 2.45l-21.96-33.88l-69.66 17.96c-0.42-0.97-0.82-1.95-1.18-2.95l69.03-17.8l-34.86-53.79c1.03-0.35 2.07-0.68 3.13-0.97l34.95 53.93z" />
					<path id="&lt;Compound Path&gt;" fill-rule="evenodd" class="s1" d="m79.9 53.33h0.01l-23.27 41.84l-23.07-41.78h0c-1.61-3.36-2.52-7.12-2.52-11.1c0-14.18 11.49-25.67 25.67-25.67c14.18 0 25.67 11.49 25.67 25.67c0 3.95-0.89 7.69-2.49 11.03zm-8.7-10.97c0-7.89-6.39-14.28-14.28-14.28c-7.89 0-14.28 6.39-14.28 14.28c0 7.89 6.39 14.28 14.28 14.28c7.89 0 14.28-6.39 14.28-14.28z" />
					<path id="&lt;Path&gt;" class="s0" d="m56.92 56.65c-7.89 0-14.28-6.39-14.28-14.28c0-7.89 6.39-14.28 14.28-14.28c7.89 0 14.28 6.39 14.28 14.28c0 7.89-6.39 14.28-14.28 14.28z" />
				</g>
			</g>
		</g>
	</g>
</svg>