<svg version="1.2" xmlns="http://www.w3.org/2000/svg" viewBox="0 0 109 109" width="109" height="109"><style>.s0{fill:#efaa00}.s1{fill:#ffffff}</style><path class="s0" d="m108.8 54.9c0 29.8-24.2 54-54 54c-29.8 0-54-24.2-54-54c0-29.9 24.2-54 54-54c29.8 0 54 24.1 54 54z" /><path fill-rule="evenodd" class="s1" d="m84.4 64.7c-3.9 7-9.6 12.2-16 16.7c-4.3 2.9-9.1 4.6-14.3 4.3c-5.1-0.2-9.7-2.3-13.9-5.2c-4.7-3.5-8.7-7.7-12.4-12.2c-0.8-1.1-1.4-2.4-2.1-3.6c-0.1-1.3-0.7-2.4-0.6-3.7c-0.4-1.4 0-2.8 0.1-4.2c0.1-3 0.4-5.9 0.7-8.9q0-1.5 0.1-3.1c4.7-0.9 9.2-2.3 13.8-3.4c3.5-0.9 7-1.8 10.6-2.6c4.5-1.1 9-0.2 13.5 0.9c6.3 1.7 12.6 3.3 19 4.9c0.4 0.1 0.8 0.1 1.2 0.2q0 1.6 0.1 3.1c0.2 2.9 0.6 5.7 0.7 8.6c0.1 1.5 0.5 3 0.1 4.5c0 1.3-0.5 2.4-0.6 3.7zm-8.2-1c-7.1 0.8-14.2 2.1-21.3 2.1c-7.2-0.1-14.2-1.3-21.2-2.1c14.1 6.9 28.3 7 42.5 0zm-4.5 8.7q-16.7 7.1-33.3 0c8.5 8.3 23.8 9 33.3 0zm-34.2-15.4c11.6 2.2 23.5 2.2 35.1 0c-11.6-2.2-23.5-2.2-35.1 0z" /><path class="s1" d="m25.1 61c-0.1 1.3 0.5 2.4 0.6 3.7c-1.9-0.7-3.5-1.8-5.2-2.9c-3.1-1.8-6-3.8-8.1-6.8c-1.4-2.1-2.4-4.5-1.8-7.1c0.9-3.6 4.9-5.8 8.8-5q3.4 0.7 6.6 1.9q-0.1 1.6-0.1 3.1c-2.2-0.8-4.4-1.6-6.7-2c-2.5-0.5-4.9 0.5-5.6 2.5c-0.6 1.7 0.1 3.2 1.1 4.6c2.6 3.7 6.4 6 10.4 8z" /><path class="s1" d="m84.4 64.7c0.1-1.3 0.6-2.4 0.6-3.7c2.9-1.3 5.5-3.1 8-5.2c1.3-1.2 2.5-2.5 3.2-4.2c1.2-2.9 0.1-5.1-2.9-5.8c-0.8-0.1-1.6-0.1-2.4 0.1c-2.3 0.4-4.5 1.2-6.7 2q-0.1-1.5-0.1-3.1c2.8-1 5.6-2 8.6-2c3.3 0.1 6.1 2.2 6.8 5.2c0.6 2.6-0.4 4.9-1.8 7c-2.5 3.4-5.9 5.6-9.5 7.7c-1.3 0.7-2.4 1.6-3.8 2z" /><path class="s0" d="m54.9 65.8c-7.2-0.1-14.2-1.3-21.2-2.1c14.1 6.9 28.3 7 42.5 0c-7.1 0.8-14.2 2.1-21.3 2.1z" /><path class="s0" d="m71.7 72.4c-9.5 9-24.8 8.3-33.3 0q16.6 7.1 33.3 0z" /><path class="s0" d="m37.5 57c11.6-2.2 23.5-2.2 35.1 0c-11.6 2.2-23.5 2.2-35.1 0z" /></svg>