<svg version="1.2" baseProfile="tiny-ps" xmlns="http://www.w3.org/2000/svg" viewBox="0 0 112 112" width="112" height="112">
	<title>Ebene 1</title>
	<style>
		tspan { white-space:pre }
		.s0 { fill: #ffffff } 
		.s1 { fill: #efaa00 } 
	</style>
	<g id="Ebene 1">
		<g id="&lt;Group&gt;">
			<g id="&lt;Group&gt;">
				<g id="&lt;Group&gt;">
					<path id="&lt;Path&gt;" class="s0" d="m112 55.8c0 30.68-24.87 55.56-55.56 55.56c-30.68 0-55.56-24.87-55.56-55.56c0-30.68 24.87-55.56 55.56-55.56c30.68 0 55.56 24.87 55.56 55.56z" />
					<path id="&lt;Compound Path&gt;" fill-rule="evenodd" class="s1" d="m98.5 59.4c0.01 0.8-0.33 1.08-1.07 1.19c-2.5 0.38-5 0.83-7.5 1.24c-1.26 0.21-2.07 0.93-2.39 2.14c-0.75 2.79-1.84 5.42-3.28 7.92c-0.7 1.22-0.56 2.35 0.26 3.47c1.46 2.01 2.87 4.05 4.33 6.06c0.44 0.6 0.41 1.01-0.13 1.53c-1.73 1.67-3.43 3.37-5.1 5.1c-0.54 0.56-0.95 0.61-1.58 0.15c-1.94-1.43-3.93-2.77-5.86-4.21c-1.27-0.96-2.5-1.06-3.88-0.25c-2.37 1.4-4.91 2.42-7.57 3.12c-1.31 0.35-2.07 1.17-2.28 2.53c-0.39 2.45-0.83 4.89-1.24 7.34c-0.16 0.99-0.25 1.09-1.22 1.09c-2.38 0-4.76 0-7.14 0c-0.99 0-1.08-0.1-1.24-1.07c-0.4-2.47-0.83-4.94-1.23-7.41c-0.21-1.33-0.98-2.14-2.25-2.47c-2.64-0.7-5.14-1.73-7.51-3.07c-1.3-0.73-2.49-0.6-3.68 0.28c-1.98 1.45-4.01 2.84-5.99 4.29c-0.63 0.46-1.04 0.42-1.58-0.15c-1.68-1.75-3.41-3.46-5.15-5.16c-0.48-0.47-0.52-0.85-0.12-1.4c1.45-1.98 2.88-3.98 4.27-6c0.4-0.58 0.64-1.26 0.95-1.88c-0.24-0.65-0.38-1.21-0.65-1.7c-1.38-2.47-2.52-5.03-3.26-7.77c-0.35-1.31-1.19-2.06-2.54-2.27c-2.5-0.41-4.99-0.87-7.49-1.26c-0.73-0.11-1.01-0.42-1-1.16c0.03-2.43 0.03-4.86 0-7.29c-0.01-0.72 0.27-1.03 0.95-1.13c2.35-0.37 4.69-0.8 7.04-1.14c1.62-0.23 2.62-1.01 3.03-2.64c0.63-2.54 1.61-4.96 2.94-7.22c0.84-1.43 0.74-2.69-0.25-4.01c-1.45-1.92-2.79-3.92-4.21-5.85c-0.46-0.62-0.42-1.05 0.14-1.59c1.71-1.65 3.38-3.35 5.06-5.03c0.76-0.76 0.76-0.75 1.67-0.11c1.94 1.38 3.89 2.73 5.81 4.15c1.25 0.93 2.47 1.01 3.81 0.22c2.32-1.37 4.79-2.43 7.41-3.11c1.47-0.39 2.27-1.3 2.5-2.8c0.36-2.35 0.79-4.69 1.18-7.03c0.2-1.19 0.23-1.23 1.41-1.23c2.38 0 4.76 0.02 7.14-0.01c0.68-0.01 0.96 0.26 1.06 0.92c0.39 2.45 0.85 4.89 1.21 7.34c0.22 1.46 1.03 2.26 2.4 2.7c1.91 0.62 3.79 1.34 5.67 2.07c0.72 0.28 1.4 0.67 2.06 1.07c1.38 0.84 2.61 0.65 3.87-0.3c1.9-1.43 3.87-2.77 5.78-4.19c0.62-0.46 1.03-0.43 1.58 0.14c1.67 1.73 3.37 3.43 5.1 5.1c0.53 0.52 0.58 0.92 0.14 1.53c-1.44 1.96-2.8 3.97-4.25 5.92c-0.93 1.25-1.03 2.46-0.23 3.81c1.4 2.37 2.42 4.9 3.13 7.56c0.36 1.34 1.2 2.1 2.59 2.32c2.45 0.38 4.89 0.84 7.34 1.22c0.75 0.12 1.07 0.4 1.06 1.2c-0.04 2.4-0.04 4.81 0 7.21zm-42-21.55c-9.79-0.12-17.93 7.95-18.03 17.88c-0.1 9.8 8 17.94 17.91 17.99c9.8 0.06 17.82-7.89 17.99-17.83c0.16-9.75-7.92-17.92-17.87-18.04z" />
				</g>
			</g>
		</g>
	</g>
</svg>